<?xml version="1.0" encoding="UTF-8"?>
<svg id="Layer_1" data-name="Layer 1" xmlns="http://www.w3.org/2000/svg" viewBox="0 0 500 500">
  <defs>
    <style>
      .cls-1 {
        fill: #cdb689;
      }
    </style>
  </defs>
  <path class="cls-1" d="M335.81,298.07h-6.49v21.36h-1.93s-18.15,0-18.15,0h-32.78v-28.23h15.55v13.73h21.97v-38.21h-21.97s-38.22,0-38.22,0v52.77h-1.98v-.06h-12.36v-52.71h-55.77l-1.95.5v52.21h-36.15v22.92h73.43v.06h32.8v-.06h75.58s23.24,0,23.24,0v-44.27h-14.81ZM204.79,288.2h11.84v31.23h-11.84v-31.23Z"/>
  <rect class="cls-1" x="292.01" y="228.78" width="21.97" height="24.23"/>
  <polygon class="cls-1" points="168.64 130.04 145.58 146.86 145.58 304.93 168.64 304.93 168.64 130.04"/>
  <polygon class="cls-1" points="204.79 92.62 181.73 109.45 181.73 253.01 204.79 253.01 204.79 92.62"/>
  <polygon class="cls-1" points="216.63 35.44 216.63 253.01 239.69 253.01 239.69 78.61 292.04 113.66 292.04 148.73 313.86 164.31 313.86 101.97 216.63 35.44 216.63 35.44 216.63 35.44 216.63 35.44 216.63 35.44"/>
  <polygon class="cls-1" points="253.4 142.5 253.4 253.01 276.46 253.01 276.46 185.67 328.81 220.72 329.24 253.01 350.63 253.01 350.63 209.03 253.4 142.5 253.4 142.5"/>
  <polygon class="cls-1" points="344.92 271.11 340.78 262.72 336.64 271.11 327.39 272.45 334.09 278.98 332.5 288.2 340.78 283.85 349.06 288.2 347.48 278.98 354.18 272.45 344.92 271.11"/>
  <g>
    <g>
      <path class="cls-1" d="M94,385.79h-.94l-3.31,7.9c2.32,2.32,4.53,4.81,6.24,7.18-1.6.33-4.14.83-7.73,1.49-2.65.5-5.47.77-8.18.77-4.31,0-8.23-.66-10.5-1.82h0c-2.76-1.38-3.65-2.1-4.36-7.46l-1.88-14.64h-.99l-2.76,6.46-5.69,3.04c-6.91,3.54-9.06,8.45-9.06,12.6,0,4.7,2.87,7.51,7.35,7.51,2.15,0,4.64-.55,7.18-1.55l2.54-7.29c.94,5.25,1.66,8.18,4.86,9.83h0c2.6,1.38,6.24,2.04,10.17,2.04,5.41,0,11.33-1.16,15.86-3.32l.06-.06c.5-.17,1.16-.5,1.55-.77l2.1-5.75c.77-2.04,1.1-4.14.99-6.24l1.27-2.98-4.75-6.96ZM53.78,400.44c-3.65,0-6.24-1.1-7.51-3.15v-.06l14.25-5.41,1.33,7.57c-2.6.66-5.52,1.05-8.07,1.05Z"/>
      <path class="cls-1" d="M53.67,373.47l3.87,3.87,4.31-4.36c.06,0,.06-.66,0-.72l-4.31-4.31-3.87,3.87-3.87-3.87-4.36,4.36v.61l4.36,4.42,3.87-3.87Z"/>
      <path class="cls-1" d="M92.68,415.41l-3.87,3.87-3.87-3.87-4.36,4.36v.61l4.36,4.42,3.87-3.87,3.87,3.87,4.31-4.37c.06,0,.06-.66,0-.72l-4.31-4.31Z"/>
      <path class="cls-1" d="M114.06,387.67h-.94l-3.26,7.73c2.82,3.15,6.3,6.91,8.01,10.28-2.15,6.46-9.5,10.55-19.28,11.93v.94l11.27,5.14c5.19-5.91,9.12-14.25,9.12-21.82,0-.77-.05-1.6-.17-2.38l1.55-3.54-6.3-8.29Z"/>
      <path class="cls-1" d="M212.36,369.33l-4.14,5.41,1.44,26.91c-1.22.17-2.71.28-3.81.28,0,0,0,0,0,0h0s-5.86,0-5.86,0c-1.66,0-3.09,0-4.36-.06,4.09-2.43,5.86-5.58,5.86-8.89,0-5.86-4.97-8.12-10.5-8.12-3.2,0-6.63.77-9.06,1.71l-3.04,6.52v.72c1.71,2.93,3.43,5.58,5.36,7.9-1.6.17-3.48.22-6.19.22h0s0,0,0,0c-3.04,0-5.69-.06-8.01-.22,2.43-2.32,3.92-5.14,3.92-8.78,0-5.36-3.2-8.29-7.73-8.29-6.85,0-12.54,6.69-12.54,12.71,0,1.82.55,3.48,1.44,4.92l-.77.11h-.44c-3.04.55-6.24.83-9.23.83-4.81,0-9.17-.66-11.66-1.88h0c-2.38-1.22-3.04-2.49-3.04-5.19v-26.63h-.94l-4.92,6.91,1.33,22.54c.33,5.75,1.22,9.01,4.75,10.88h0c2.76,1.49,6.8,2.16,11.16,2.16,5.91,0,12.38-1.27,17.13-3.48l2.32-1.16c4.37,2.43,10,3.65,14.53,3.65.02,0,.04,0,.06,0h0c2.54,0,4.81-.49,7.18-1.32l5.58-3.92c3.92,3.31,8.67,5.25,15.03,5.25,0,0,0,0,0,0h0s0,0,.01,0c.27,0,.52-.02.74-.05,2.37-.22,4.54-1.41,5.54-2.16,1.99-4.97,4.64-15.47,4.64-21.66v-4.92l1.77-2.21-2.6-10.66h-.94ZM154.73,395.52c1.66-1.6,4.92-2.87,8.34-2.87,4.81,0,8.23,2.49,7.96,6.85l-6.35,1.6c-5.58-.99-8.45-2.76-9.94-5.58ZM184.07,395.3l-1.22-1.93c2.49-.28,5.75-.55,8.62-.55,4.36,0,8.56.77,8.56,2.71s-6.91,4.36-10.5,5.36c-2.15-.88-3.65-2.54-5.47-5.58Z"/>
      <path class="cls-1" d="M164.62,376.4l3.87,3.92,4.31-4.37c.06,0,.06-.66,0-.72l-4.31-4.31-3.87,3.92-3.92-3.92-4.36,4.37v.61l4.36,4.42,3.92-3.92Z"/>
      <path class="cls-1" d="M226.06,369.33v.06l-4.2,5.3,1.66,37.18h.99l2.54-8.73c.55-1.88.83-3.76.83-5.69v-15.3l1.71-2.15-2.6-10.66h-.94Z"/>
      <path class="cls-1" d="M253.03,387.67h-.94l-3.26,7.73c2.82,3.15,6.3,6.91,8.01,10.28-2.15,6.46-9.5,10.55-19.28,11.93v.94l11.27,5.14c5.19-5.91,9.12-14.25,9.12-21.82,0-.77-.06-1.6-.17-2.38l1.55-3.54-6.3-8.29Z"/>
      <path class="cls-1" d="M297.45,380.38l3.87,3.92,4.31-4.37c.06,0,.06-.66,0-.72l-4.31-4.31-3.87,3.92-3.92-3.92-4.36,4.37v.61l4.36,4.42,3.92-3.92Z"/>
      <path class="cls-1" d="M340.16,387.89l-2.98,7.62c2.32,2.27,3.92,3.98,5.41,6.74l-11.55-2.6,1.33-5.3-1.44-.39-1.99,6.96c-1.6.88-3.48,1.22-5.25,1.22-2.32,0-5.36-.66-7.57-1.77l2.49-4.48-1.32-.72-3.65,6.02c-1.93.55-2.82.72-5.3.72-.04,0-.07,0-.11,0h0c-5.08,0-6.24-.95-6.24-3.54v-9.5h-.99l-4.09,5.3.33,5.3c.06.44.06.83.11,1.22-4.75,1.6-9.89,2.43-14.86,2.43-4.31,0-8.23-.66-10.5-1.82h0c-2.38-1.22-3.04-2.49-3.04-5.19v-26.63h-.94l-4.92,6.91,1.33,22.54c.33,5.75,1.22,9.01,4.75,10.88,2.6,1.38,6.24,2.04,10.17,2.04,5.41,0,11.33-1.22,15.91-3.37l2.32-6.19c.94,6.41,3.48,8.67,7.96,8.67.04,0,.07,0,.11,0h0c1.93,0,3.76-.27,5.52-1.43l1.22-2.15c1.88,2.1,4.59,3.59,8.07,3.59,3.15,0,6.13-1.27,7.13-3.98l13.37,3.26,2.38-7.85c1.93-6.41,1.55-9.17-2.15-14.53h-.99Z"/>
      <path class="cls-1" d="M432.27,375.3c.06-.06.06-.77,0-.83l-4.81-4.81-4.86,4.86v.72l4.86,4.86,4.81-4.81Z"/>
      <path class="cls-1" d="M450.4,386.07c-.06-.06-.11-.17-.22-.28h-.94l-3.31,7.9c2.43,2.32,5.03,5.36,6.19,7.24-2.93.61-6.52.99-9.72.99-.02,0-.04,0-.06,0h0s-5.86,0-5.86,0c-1.66,0-3.09,0-4.36-.06,4.09-2.43,5.86-5.58,5.86-8.89,0-5.86-4.97-8.12-10.5-8.12-3.2,0-6.63.77-9.06,1.71l-3.04,6.52v.72c1.71,2.98,3.48,5.69,5.41,8.01l-2.98.55c-3.04.55-6.24.83-9.28.83-4.81,0-9.12-.66-11.6-1.88h0c-1.66-.77-3.48-2.21-4.86-4.92l-1.33-2.6c-1.49-2.82-3.76-5.47-7.18-5.47-7.02,0-11.88,2.87-16.69,7.96-3.7,3.92-5.19,8.56-4.53,13.92l1.93,17.29h.77l2.6-7.24c.72-2.1.94-4.25.72-6.46l-1.6-16.19c2.49-.94,5.14-1.6,7.73-2.04-.5.83-.99,1.66-1.44,2.43l-.72,1.38c-1.99,3.48-1.16,6.41,2.21,8.18,3.98,2.1,7.74,3.43,12.65,4.2l2.6-6.63c1.11,1.93,2.38,3.7,4.31,4.7h0c2.76,1.49,6.8,2.16,11.16,2.16,5.91,0,12.38-1.27,17.13-3.48l2.82-2.26c3.87,3.04,8.45,4.75,14.48,4.75,0,0,0,0,0,0h0c3.48,0,7.46-.99,10.55-2.71l2.38-6.35c.77-2.15,1.16-4.25,1.1-6.35l1.22-2.82-4.53-6.68ZM373.82,398.78c1.71-2.1,4.2-3.59,6.19-3.59,5.08,0,6.85,4.36,9,8.45-6.35-1.66-10.94-3.26-15.19-4.86ZM420.56,395.3l-1.22-1.93c2.49-.28,5.75-.55,8.62-.55,4.36,0,8.56.77,8.56,2.71s-6.91,4.36-10.5,5.36c-2.15-.88-3.65-2.54-5.47-5.58Z"/>
      <path class="cls-1" d="M451.89,376.79c.06-.06.06-.77,0-.83l-4.81-4.81-4.86,4.86v.72l4.86,4.86,4.81-4.81Z"/>
    </g>
    <g>
      <polygon class="cls-1" points="58 444.92 60.56 446.16 60.56 457.81 49.85 444.27 44.79 444.27 44.79 444.89 47.19 446.16 47.19 462.26 44.79 463.49 44.79 464.14 51.77 464.14 51.77 463.49 49.21 462.26 49.21 449.27 60.99 464.24 62.54 464.24 62.54 446.16 64.95 444.92 64.95 444.27 58 444.27 58 444.92"/>
      <path class="cls-1" d="M76.96,443.63l-2.21.84-7.33,17.79-2.04,1.23v.65h6.23v-.65l-2.3-1.2,2.14-5.39h6.98l2.04,5.36-2.73,1.23v.65h8.18v-.65l-1.75-1.23-7.21-18.63ZM71.99,455.54l2.99-7.59,2.92,7.59h-5.91Z"/>
      <path class="cls-1" d="M97.63,455.5l2.4,1.27v5.81c-.34.09-.72.16-1.12.21s-.83.08-1.28.08c-1.28,0-2.42-.35-3.42-1.05-1.01-.7-1.8-1.74-2.39-3.1-.58-1.36-.88-3.03-.88-5s.22-3.67.65-4.84c.43-1.17,1.05-2,1.87-2.5s1.8-.75,2.97-.75c.52,0,1.13.04,1.82.11.69.08,1.22.18,1.59.31l2.04,3.25h.91l.75-4.41c-.39-.19-.89-.37-1.49-.54s-1.29-.29-2.04-.37c-.76-.09-1.56-.13-2.4-.13-1.38,0-2.7.23-3.94.7-1.24.47-2.34,1.16-3.29,2.08-.95.92-1.7,2.05-2.24,3.38-.54,1.33-.81,2.86-.81,4.59,0,2.19.37,4.02,1.12,5.5.75,1.48,1.82,2.6,3.21,3.34,1.4.75,3.07,1.12,5.01,1.12.84,0,1.66-.05,2.43-.15.78-.1,1.53-.25,2.26-.47.73-.22,1.4-.48,2.03-.78v-6.39l2.08-1.23v-.65h-7.82v.62Z"/>
      <polygon class="cls-1" points="119.8 444.89 122.1 446.16 122.1 453.1 113.41 453.1 113.41 446.16 115.71 444.92 115.71 444.27 107.37 444.27 107.37 444.89 109.77 446.16 109.77 462.26 107.37 463.49 107.37 464.14 115.71 464.14 115.71 463.49 113.41 462.26 113.41 454.53 122.1 454.53 122.1 462.26 119.8 463.49 119.8 464.14 128.14 464.14 128.14 463.49 125.74 462.26 125.74 446.16 128.14 444.92 128.14 444.27 119.8 444.27 119.8 444.89"/>
      <path class="cls-1" d="M140.83,443.63l-2.21.84-7.34,17.79-2.04,1.23v.65h6.23v-.65l-2.3-1.2,2.14-5.39h6.98l2.04,5.36-2.73,1.23v.65h8.18v-.65l-1.75-1.23-7.21-18.63ZM135.87,455.54l2.99-7.59,2.92,7.59h-5.91Z"/>
      <polygon class="cls-1" points="174.23 446.16 176.63 444.92 176.63 444.27 170.5 444.27 164.2 459.11 157.97 444.27 151.57 444.27 151.57 444.89 153.98 446.16 152.94 462.26 150.53 463.49 150.53 464.14 157.35 464.14 157.35 463.49 154.95 462.26 155.73 447.88 162.22 463.52 164.36 462.68 170.85 447.85 171.57 462.26 169.17 463.49 169.17 464.14 177.6 464.14 177.6 463.49 175.2 462.26 174.23 446.16"/>
      <path class="cls-1" d="M198.52,454.34c-.7-.54-1.66-1.05-2.87-1.53l-1.78-.75c-1.04-.43-1.86-.94-2.45-1.53s-.89-1.37-.89-2.37c0-.91.25-1.6.75-2.06.5-.46,1.19-.7,2.08-.7.58,0,1.17.04,1.77.11.59.08,1.15.21,1.67.41l1.69,3.15h.91l.75-4.38c-.56-.24-1.3-.44-2.21-.6-.91-.16-1.93-.24-3.05-.24-1.56,0-2.9.26-4.02.78-1.13.52-1.98,1.21-2.56,2.08s-.88,1.84-.88,2.92c0,.89.18,1.67.54,2.34.36.67.87,1.26,1.54,1.75.67.5,1.47.94,2.4,1.33l1.78.75c1.36.56,2.31,1.17,2.84,1.82s.79,1.43.79,2.34c0,.69-.14,1.26-.42,1.7-.28.44-.66.77-1.14.99-.48.22-1.01.32-1.59.32-.67-.02-1.33-.07-1.98-.13-.65-.06-1.28-.19-1.88-.39l-1.62-3.21h-.91l-.78,4.51c.69.26,1.5.46,2.43.6.93.14,1.94.21,3.02.21,1.54,0,2.9-.26,4.11-.78,1.2-.52,2.15-1.25,2.86-2.19.7-.94,1.05-2.03,1.05-3.26,0-.84-.15-1.58-.44-2.22-.29-.64-.79-1.23-1.49-1.77Z"/>
      <polygon class="cls-1" points="220.58 444.27 203.31 444.27 202.4 449.37 203.28 449.37 206.3 445.64 209.61 445.64 209.61 462.19 207.08 463.49 207.08 464.14 215.77 464.14 215.77 463.49 213.24 462.19 213.24 445.64 217.01 445.64 218.79 449.37 219.67 449.37 220.58 444.27"/>
      <path class="cls-1" d="M230.74,443.63l-2.21.84-7.34,17.79-2.04,1.23v.65h6.23v-.65l-2.3-1.2,2.14-5.39h6.98l2.04,5.36-2.73,1.23v.65h8.18v-.65l-1.75-1.23-7.21-18.63ZM225.77,455.54l2.99-7.59,2.92,7.59h-5.91Z"/>
      <path class="cls-1" d="M252.29,454.37c1.17-.5,2.14-1.21,2.92-2.13.78-.92,1.17-2.01,1.17-3.26,0-1.54-.61-2.7-1.82-3.5-1.21-.8-2.95-1.2-5.23-1.2h-8.34v.62l2.4,1.27v16.1l-2.4,1.23v.65h8.93v-.65l-2.89-1.23v-7.11c.63.02,1.09.02,1.38,0s.55-.03.76-.03l5.23,9.02h4.97v-.65l-1.75-1.04-5.32-8.08ZM249.24,453.82c-.78,0-1.52-.08-2.21-.23v-7.95h1.1c1.51,0,2.67.38,3.47,1.14.8.76,1.2,1.87,1.2,3.34,0,1.34-.28,2.29-.84,2.86s-1.47.84-2.73.84Z"/>
      <path class="cls-1" d="M279.23,454.37c1.17-.5,2.14-1.21,2.92-2.13.78-.92,1.17-2.01,1.17-3.26,0-1.54-.61-2.7-1.82-3.5-1.21-.8-2.95-1.2-5.23-1.2h-8.34v.62l2.4,1.27v16.1l-2.4,1.23v.65h8.93v-.65l-2.89-1.23v-7.11c.63.02,1.09.02,1.38,0s.55-.03.76-.03l5.23,9.02h4.97v-.65l-1.75-1.04-5.32-8.08ZM276.18,453.82c-.78,0-1.52-.08-2.21-.23v-7.95h1.1c1.51,0,2.67.38,3.47,1.14.8.76,1.2,1.87,1.2,3.34,0,1.34-.28,2.29-.84,2.86s-1.47.84-2.73.84Z"/>
      <polygon class="cls-1" points="299.09 462.78 293.83 462.78 293.83 454.53 295.94 454.53 299.68 454.89 300.03 452.94 296.01 453.23 293.83 453.23 293.83 445.64 298.6 445.64 300.49 448.92 301.4 448.92 302.21 444.27 287.8 444.27 287.8 444.89 290.2 446.16 290.2 462.26 287.8 463.49 287.8 464.14 302.01 464.14 302.92 458.78 302.04 458.78 299.09 462.78"/>
      <path class="cls-1" d="M315.84,443.63l-2.21.84-7.34,17.79-2.04,1.23v.65h6.23v-.65l-2.3-1.2,2.14-5.39h6.98l2.04,5.36-2.73,1.23v.65h8.18v-.65l-1.75-1.23-7.21-18.63ZM310.87,455.54l2.99-7.59,2.92,7.59h-5.91Z"/>
      <polygon class="cls-1" points="337.52 462.78 332.13 462.78 332.13 446.16 335.05 444.92 335.05 444.27 326.1 444.27 326.1 444.89 328.5 446.16 328.5 462.26 326.1 463.49 326.1 464.14 340.64 464.14 341.61 458.39 340.73 458.39 337.52 462.78"/>
      <polygon class="cls-1" points="361.83 462.78 356.57 462.78 356.57 454.53 358.68 454.53 362.42 454.89 362.77 452.94 358.75 453.23 356.57 453.23 356.57 445.64 361.34 445.64 363.23 448.92 364.14 448.92 364.95 444.27 350.54 444.27 350.54 444.89 352.94 446.16 352.94 462.26 350.54 463.49 350.54 464.14 364.75 464.14 365.66 458.78 364.78 458.78 361.83 462.78"/>
      <path class="cls-1" d="M380.12,454.34c-.7-.54-1.66-1.05-2.87-1.53l-1.78-.75c-1.04-.43-1.86-.94-2.45-1.53s-.89-1.37-.89-2.37c0-.91.25-1.6.75-2.06.5-.46,1.19-.7,2.08-.7.58,0,1.17.04,1.77.11.59.08,1.15.21,1.67.41l1.69,3.15h.91l.75-4.38c-.56-.24-1.3-.44-2.21-.6-.91-.16-1.93-.24-3.05-.24-1.56,0-2.9.26-4.02.78-1.13.52-1.98,1.21-2.56,2.08s-.88,1.84-.88,2.92c0,.89.18,1.67.54,2.34.36.67.87,1.26,1.54,1.75.67.5,1.47.94,2.4,1.33l1.78.75c1.36.56,2.31,1.17,2.84,1.82s.79,1.43.79,2.34c0,.69-.14,1.26-.42,1.7-.28.44-.66.77-1.14.99-.48.22-1.01.32-1.59.32-.67-.02-1.33-.07-1.98-.13-.65-.06-1.28-.19-1.88-.39l-1.62-3.21h-.91l-.78,4.51c.69.26,1.5.46,2.43.6.93.14,1.94.21,3.02.21,1.54,0,2.9-.26,4.11-.78,1.2-.52,2.15-1.25,2.86-2.19.7-.94,1.05-2.03,1.05-3.26,0-.84-.15-1.58-.44-2.22-.29-.64-.79-1.23-1.49-1.77Z"/>
      <polygon class="cls-1" points="402.17 444.27 384.91 444.27 384 449.37 384.88 449.37 387.89 445.64 391.2 445.64 391.2 462.19 388.67 463.49 388.67 464.14 397.37 464.14 397.37 463.49 394.84 462.19 394.84 445.64 398.6 445.64 400.39 449.37 401.27 449.37 402.17 444.27"/>
      <path class="cls-1" d="M412.33,443.63l-2.21.84-7.34,17.79-2.04,1.23v.65h6.23v-.65l-2.3-1.2,2.14-5.39h6.98l2.04,5.36-2.73,1.23v.65h8.18v-.65l-1.75-1.23-7.21-18.63ZM407.37,455.54l2.99-7.59,2.92,7.59h-5.91Z"/>
      <polygon class="cls-1" points="420.15 449.37 421.03 449.37 424.05 445.64 427.36 445.64 427.36 462.19 424.83 463.49 424.83 464.14 433.53 464.14 433.53 463.49 431 462.19 431 445.64 434.76 445.64 436.55 449.37 437.42 449.37 438.33 444.27 421.06 444.27 420.15 449.37"/>
      <polygon class="cls-1" points="454.33 458.78 451.38 462.78 446.12 462.78 446.12 454.53 448.23 454.53 451.96 454.89 452.32 452.94 448.3 453.23 446.12 453.23 446.12 445.64 450.89 445.64 452.78 448.92 453.68 448.92 454.5 444.27 440.08 444.27 440.08 444.89 442.49 446.16 442.49 462.26 440.08 463.49 440.08 464.14 454.3 464.14 455.21 458.78 454.33 458.78"/>
    </g>
  </g>
</svg>