<?xml version="1.0" encoding="UTF-8"?>
<svg id="Layer_1" data-name="Layer 1" xmlns="http://www.w3.org/2000/svg" viewBox="0 0 520 440">
  <defs>
    <style>
      .cls-1 {
        fill: #cdb689;
      }
    </style>
  </defs>
  <rect class="cls-1" x="315.54" y="327.14" width="27.79" height="30.29"/>
  <polygon class="cls-1" points="130.3 357.43 159.48 357.43 159.48 202.24 130.3 223.52 130.3 357.43"/>
  <polygon class="cls-1" points="176.03 357.43 205.2 357.43 205.2 154.91 176.03 176.19 176.03 357.43"/>
  <polygon class="cls-1" points="315.58 181.52 315.58 225.89 343.18 245.6 343.18 166.73 220.18 82.57 220.18 357.43 249.36 357.43 249.36 137.18 315.58 181.52"/>
  <polygon class="cls-1" points="266.7 218 266.7 357.43 295.87 357.43 295.87 272.61 362.1 316.95 362.64 357.43 389.7 357.43 389.7 302.17 266.7 218"/>
</svg>