<?xml version="1.0" encoding="UTF-8"?>
<svg id="Layer_1" data-name="Layer 1" xmlns="http://www.w3.org/2000/svg" viewBox="0 0 1066 308">
  <defs>
    <style>
      .cls-1 {
        fill: #cdb689;
      }
    </style>
  </defs>
  <g>
    <path class="cls-1" d="M831.12,217.08h-3.75v12.34h-1.12s-10.49,0-10.49,0h-18.94v-16.31h8.98v7.93h12.7v-22.08h-12.7s-22.09,0-22.09,0v30.5h-1.14v-.04h-7.14v-30.46h-32.23l-1.13.29v30.17h-20.89v13.24h42.43v.04h18.96v-.04h43.68s13.43,0,13.43,0v-25.59h-8.56ZM755.39,211.37h6.84v18.05h-6.84v-18.05Z"/>
    <rect class="cls-1" x="805.8" y="177.03" width="12.7" height="14"/>
    <polygon class="cls-1" points="734.5 119.97 721.18 129.69 721.18 221.04 734.5 221.04 734.5 119.97"/>
    <polygon class="cls-1" points="755.39 98.35 742.07 108.07 742.07 191.03 755.39 191.03 755.39 98.35"/>
    <polygon class="cls-1" points="762.24 65.3 762.24 191.03 775.56 191.03 775.56 90.25 805.82 110.5 805.82 130.77 818.43 139.78 818.43 103.75 762.24 65.3 762.24 65.3 762.24 65.3 762.24 65.3 762.24 65.3"/>
    <polygon class="cls-1" points="783.49 127.17 783.49 191.03 796.81 191.03 796.81 152.12 827.07 172.37 827.32 191.04 839.68 191.04 839.68 165.62 783.49 127.17 783.49 127.17"/>
    <polygon class="cls-1" points="836.38 201.5 833.99 196.65 831.6 201.5 826.25 202.27 830.12 206.05 829.2 211.37 833.99 208.86 838.77 211.37 837.86 206.05 841.73 202.27 836.38 201.5"/>
  </g>
  <g>
    <g>
      <path class="cls-1" d="M279.32,146.07h-1.05l-3.71,8.84c2.6,2.6,5.07,5.38,6.98,8.03-1.79.37-4.63.93-8.65,1.67-2.97.56-6.12.87-9.15.87-4.82,0-9.21-.74-11.74-2.04h0c-3.09-1.55-4.08-2.35-4.88-8.34l-2.1-16.38h-1.11l-3.09,7.23-6.37,3.4c-7.73,3.96-10.14,9.45-10.14,14.09,0,5.25,3.21,8.4,8.22,8.4,2.41,0,5.19-.62,8.03-1.73l2.84-8.16c1.05,5.87,1.85,9.15,5.44,11h0c2.9,1.55,6.98,2.29,11.37,2.29,6.06,0,12.67-1.3,17.74-3.71l.06-.06c.56-.19,1.3-.56,1.73-.86l2.35-6.43c.87-2.29,1.24-4.63,1.11-6.98l1.42-3.34-5.31-7.79ZM234.32,162.44c-4.08,0-6.98-1.24-8.4-3.52v-.06l15.94-6.06,1.48,8.47c-2.9.74-6.18,1.17-9.02,1.17Z"/>
      <path class="cls-1" d="M234.2,132.29l4.33,4.33,4.82-4.88c.06,0,.06-.74,0-.8l-4.82-4.82-4.33,4.33-4.33-4.33-4.88,4.88v.68l4.88,4.94,4.33-4.33Z"/>
      <path class="cls-1" d="M277.83,179.19l-4.33,4.33-4.33-4.33-4.88,4.88v.68l4.88,4.94,4.33-4.33,4.33,4.33,4.82-4.88c.06,0,.06-.74,0-.8l-4.82-4.82Z"/>
      <path class="cls-1" d="M301.75,148.17h-1.05l-3.65,8.65c3.15,3.52,7.05,7.73,8.96,11.5-2.41,7.23-10.63,11.8-21.57,13.35v1.05l12.61,5.75c5.81-6.61,10.2-15.94,10.2-24.41,0-.86-.06-1.79-.19-2.66l1.73-3.96-7.04-9.27Z"/>
      <path class="cls-1" d="M411.71,127.65l-4.64,6.06,1.61,30.1c-1.36.19-3.03.31-4.26.31,0,0,0,0,0,0h0s-6.55,0-6.55,0c-1.85,0-3.46,0-4.88-.06,4.57-2.72,6.55-6.24,6.55-9.95,0-6.55-5.56-9.09-11.74-9.09-3.58,0-7.42.87-10.13,1.92l-3.4,7.29v.8c1.92,3.27,3.83,6.24,5.99,8.84-1.79.19-3.89.25-6.92.25h0s0,0,0,0c-3.4,0-6.37-.06-8.96-.25,2.72-2.6,4.39-5.75,4.39-9.83,0-5.99-3.58-9.27-8.65-9.27-7.66,0-14.03,7.48-14.03,14.21,0,2.04.62,3.89,1.61,5.5l-.87.12h-.49c-3.4.62-6.98.93-10.32.93-5.38,0-10.26-.74-13.04-2.1h0c-2.66-1.36-3.4-2.78-3.4-5.81v-29.79h-1.05l-5.5,7.72,1.48,25.21c.37,6.43,1.36,10.07,5.32,12.17h0c3.09,1.67,7.6,2.41,12.48,2.41,6.61,0,13.84-1.42,19.16-3.89l2.6-1.3c4.88,2.72,11.19,4.08,16.25,4.08.02,0,.04,0,.07,0h0c2.84,0,5.38-.55,8.03-1.48l6.24-4.39c4.39,3.71,9.7,5.87,16.81,5.87,0,0,0,0,0,0h0s0,0,.01,0c.31,0,.58-.02.83-.05,2.65-.25,5.08-1.58,6.2-2.42,2.23-5.56,5.19-17.3,5.19-24.23v-5.5l1.98-2.47-2.91-11.93h-1.05ZM347.24,156.94c1.85-1.79,5.5-3.21,9.33-3.21,5.38,0,9.21,2.78,8.9,7.66l-7.11,1.79c-6.24-1.11-9.46-3.09-11.12-6.24ZM380.06,156.7l-1.36-2.16c2.78-.31,6.43-.62,9.64-.62,4.88,0,9.58.87,9.58,3.03s-7.73,4.88-11.74,5.99c-2.41-.99-4.08-2.84-6.12-6.24Z"/>
      <path class="cls-1" d="M358.3,135.56l4.33,4.39,4.82-4.88c.06,0,.06-.74,0-.8l-4.82-4.82-4.33,4.39-4.39-4.39-4.88,4.88v.68l4.88,4.94,4.39-4.39Z"/>
      <path class="cls-1" d="M427.03,127.65v.06l-4.7,5.93,1.85,41.59h1.11l2.84-9.76c.62-2.1.93-4.2.93-6.37v-17.12l1.92-2.41-2.9-11.93h-1.05Z"/>
      <path class="cls-1" d="M457.19,148.17h-1.05l-3.65,8.65c3.15,3.52,7.04,7.73,8.96,11.5-2.41,7.23-10.63,11.8-21.57,13.35v1.05l12.61,5.75c5.81-6.61,10.2-15.94,10.2-24.41,0-.86-.06-1.79-.19-2.66l1.73-3.96-7.05-9.27Z"/>
      <path class="cls-1" d="M506.88,140.01l4.33,4.39,4.82-4.88c.06,0,.06-.74,0-.8l-4.82-4.82-4.33,4.39-4.39-4.39-4.88,4.88v.68l4.88,4.94,4.39-4.39Z"/>
      <path class="cls-1" d="M554.66,148.41l-3.34,8.53c2.6,2.53,4.39,4.45,6.06,7.54l-12.92-2.91,1.48-5.93-1.61-.43-2.23,7.79c-1.79.99-3.89,1.36-5.87,1.36-2.6,0-5.99-.74-8.47-1.98l2.78-5.01-1.48-.8-4.08,6.74c-2.16.62-3.15.8-5.93.8-.05,0-.08,0-.13,0h0c-5.69,0-6.98-1.06-6.98-3.96v-10.63h-1.11l-4.57,5.93.37,5.93c.06.49.06.93.12,1.36-5.32,1.79-11.06,2.72-16.63,2.72-4.82,0-9.21-.74-11.74-2.04h0c-2.66-1.36-3.4-2.78-3.4-5.81v-29.79h-1.05l-5.5,7.72,1.48,25.21c.37,6.43,1.36,10.07,5.32,12.17,2.91,1.55,6.98,2.29,11.37,2.29,6.06,0,12.67-1.36,17.8-3.77l2.6-6.92c1.05,7.17,3.89,9.7,8.9,9.7.05,0,.08,0,.13,0h0c2.16,0,4.2-.3,6.18-1.6l1.36-2.41c2.1,2.35,5.13,4.02,9.02,4.02,3.52,0,6.86-1.42,7.97-4.45l14.96,3.65,2.66-8.78c2.16-7.17,1.73-10.26-2.41-16.25h-1.11Z"/>
      <path class="cls-1" d="M657.69,134.32c.06-.06.06-.87,0-.93l-5.38-5.38-5.44,5.44v.8l5.44,5.44,5.38-5.38Z"/>
      <path class="cls-1" d="M677.97,146.38c-.06-.06-.12-.19-.25-.31h-1.05l-3.71,8.84c2.72,2.6,5.62,5.99,6.92,8.1-3.28.68-7.29,1.11-10.88,1.11-.02,0-.04,0-.07,0h0s-6.55,0-6.55,0c-1.85,0-3.46,0-4.88-.06,4.57-2.72,6.55-6.24,6.55-9.95,0-6.55-5.56-9.09-11.74-9.09-3.58,0-7.42.87-10.14,1.92l-3.4,7.29v.8c1.92,3.34,3.89,6.37,6.06,8.96l-3.34.62c-3.4.62-6.98.93-10.38.93-5.38,0-10.2-.74-12.98-2.1h0c-1.85-.87-3.89-2.47-5.44-5.5l-1.48-2.9c-1.67-3.15-4.2-6.12-8.03-6.12-7.85,0-13.29,3.21-18.66,8.9-4.14,4.39-5.81,9.58-5.07,15.57l2.16,19.34h.86l2.91-8.1c.8-2.35,1.05-4.76.8-7.23l-1.79-18.11c2.78-1.05,5.75-1.79,8.65-2.29-.56.93-1.11,1.85-1.61,2.72l-.8,1.54c-2.23,3.89-1.3,7.17,2.47,9.15,4.45,2.35,8.65,3.83,14.15,4.7l2.9-7.42c1.24,2.16,2.66,4.14,4.82,5.25h0c3.09,1.67,7.6,2.41,12.48,2.41,6.61,0,13.84-1.42,19.16-3.89l3.15-2.53c4.33,3.4,9.46,5.31,16.19,5.31,0,0,0,0,0,0h0c3.89,0,8.34-1.11,11.8-3.03l2.66-7.11c.86-2.41,1.3-4.76,1.24-7.11l1.36-3.15-5.07-7.48ZM592.3,160.59c1.92-2.35,4.7-4.02,6.92-4.02,5.68,0,7.66,4.88,10.07,9.45-7.11-1.85-12.24-3.65-16.99-5.44ZM644.59,156.7l-1.36-2.16c2.78-.31,6.43-.62,9.64-.62,4.88,0,9.58.87,9.58,3.03s-7.72,4.88-11.74,5.99c-2.41-.99-4.08-2.84-6.12-6.24Z"/>
      <path class="cls-1" d="M679.63,135.99c.06-.06.06-.87,0-.93l-5.38-5.38-5.44,5.44v.8l5.44,5.44,5.38-5.38Z"/>
    </g>
    <g>
      <polygon class="cls-1" points="239.05 212.21 241.91 213.59 241.91 226.62 229.93 211.48 224.27 211.48 224.27 212.17 226.96 213.59 226.96 231.59 224.27 232.97 224.27 233.7 232.07 233.7 232.07 232.97 229.21 231.59 229.21 217.07 242.39 233.81 244.13 233.81 244.13 213.59 246.81 212.21 246.81 211.48 239.05 211.48 239.05 212.21"/>
      <path class="cls-1" d="M260.25,210.75l-2.47.94-8.2,19.89-2.29,1.38v.73h6.97v-.73l-2.58-1.34,2.4-6.03h7.81l2.29,5.99-3.05,1.38v.73h9.15v-.73l-1.96-1.38-8.06-20.84ZM254.69,224.08l3.34-8.49,3.27,8.49h-6.61Z"/>
      <path class="cls-1" d="M283.37,224.04l2.69,1.42v6.5c-.39.1-.8.18-1.25.24s-.93.09-1.43.09c-1.43,0-2.71-.39-3.83-1.18-1.13-.79-2.02-1.94-2.67-3.47-.65-1.52-.98-3.39-.98-5.59s.24-4.1.73-5.41c.48-1.31,1.18-2.24,2.09-2.8s2.01-.84,3.32-.84c.58,0,1.26.04,2.03.13.78.09,1.37.2,1.78.35l2.29,3.63h1.02l.84-4.94c-.44-.22-.99-.42-1.67-.6s-1.44-.32-2.29-.42c-.85-.1-1.74-.14-2.69-.14-1.55,0-3.02.26-4.41.78-1.39.52-2.62,1.29-3.68,2.32-1.07,1.03-1.9,2.29-2.5,3.78-.61,1.49-.91,3.2-.91,5.14,0,2.44.42,4.5,1.25,6.15.83,1.66,2.03,2.9,3.59,3.74,1.56.84,3.43,1.25,5.61,1.25.94,0,1.85-.05,2.72-.16.87-.11,1.71-.29,2.52-.53.81-.24,1.57-.53,2.27-.87v-7.15l2.32-1.38v-.73h-8.75v.69Z"/>
      <polygon class="cls-1" points="308.17 212.17 310.75 213.59 310.75 221.36 301.02 221.36 301.02 213.59 303.6 212.21 303.6 211.48 294.27 211.48 294.27 212.17 296.95 213.59 296.95 231.59 294.27 232.97 294.27 233.7 303.6 233.7 303.6 232.97 301.02 231.59 301.02 222.95 310.75 222.95 310.75 231.59 308.17 232.97 308.17 233.7 317.5 233.7 317.5 232.97 314.81 231.59 314.81 213.59 317.5 212.21 317.5 211.48 308.17 211.48 308.17 212.17"/>
      <path class="cls-1" d="M331.7,210.75l-2.47.94-8.21,19.89-2.29,1.38v.73h6.97v-.73l-2.58-1.34,2.4-6.03h7.81l2.29,5.99-3.05,1.38v.73h9.15v-.73l-1.96-1.38-8.06-20.84ZM326.14,224.08l3.34-8.49,3.27,8.49h-6.61Z"/>
      <polygon class="cls-1" points="369.05 213.59 371.74 212.21 371.74 211.48 364.88 211.48 357.84 228.07 350.86 211.48 343.71 211.48 343.71 212.17 346.4 213.59 345.24 231.59 342.55 232.97 342.55 233.7 350.17 233.7 350.17 232.97 347.49 231.59 348.36 215.51 355.62 233.01 358.02 232.07 365.28 215.47 366.08 231.59 363.39 232.97 363.39 233.7 372.83 233.7 372.83 232.97 370.14 231.59 369.05 213.59"/>
      <path class="cls-1" d="M396.23,222.74c-.79-.61-1.86-1.17-3.21-1.71l-2-.83c-1.16-.48-2.08-1.05-2.74-1.71s-1-1.54-1-2.65c0-1.02.28-1.78.83-2.31.56-.52,1.33-.78,2.32-.78.65,0,1.31.04,1.98.13.67.09,1.29.24,1.87.45l1.89,3.52h1.02l.84-4.9c-.63-.27-1.45-.49-2.47-.67-1.02-.18-2.16-.27-3.41-.27-1.74,0-3.24.29-4.5.87-1.26.58-2.22,1.35-2.87,2.32s-.98,2.06-.98,3.27c0,.99.2,1.86.6,2.61.4.75.97,1.4,1.72,1.96.75.56,1.65,1.05,2.69,1.49l2,.83c1.52.63,2.58,1.31,3.18,2.03s.89,1.6.89,2.61c0,.78-.16,1.41-.47,1.91-.31.5-.74.87-1.27,1.11-.53.24-1.13.36-1.78.36-.75-.02-1.49-.07-2.21-.15-.73-.07-1.43-.22-2.11-.44l-1.82-3.59h-1.02l-.87,5.05c.77.29,1.68.51,2.72.67,1.04.16,2.17.24,3.38.24,1.72,0,3.25-.29,4.59-.87,1.34-.58,2.41-1.4,3.2-2.45.79-1.05,1.18-2.27,1.18-3.65,0-.94-.16-1.77-.49-2.49-.33-.71-.88-1.37-1.67-1.98Z"/>
      <polygon class="cls-1" points="420.9 211.48 401.58 211.48 400.57 217.18 401.55 217.18 404.92 213.01 408.63 213.01 408.63 231.52 405.79 232.97 405.79 233.7 415.52 233.7 415.52 232.97 412.69 231.52 412.69 213.01 416.9 213.01 418.9 217.18 419.88 217.18 420.9 211.48"/>
      <path class="cls-1" d="M432.26,210.75l-2.47.94-8.21,19.89-2.29,1.38v.73h6.97v-.73l-2.58-1.34,2.4-6.03h7.81l2.29,5.99-3.05,1.38v.73h9.15v-.73l-1.96-1.38-8.06-20.84ZM426.71,224.08l3.34-8.49,3.27,8.49h-6.61Z"/>
      <path class="cls-1" d="M456.37,222.77c1.31-.56,2.4-1.35,3.27-2.38.87-1.03,1.31-2.25,1.31-3.65,0-1.72-.68-3.02-2.03-3.92-1.36-.9-3.3-1.34-5.84-1.34h-9.33v.69l2.69,1.42v18.01l-2.69,1.38v.73h9.98v-.73l-3.23-1.38v-7.95c.7.02,1.22.02,1.54,0s.61-.04.85-.04l5.84,10.09h5.55v-.73l-1.96-1.16-5.95-9.04ZM452.95,222.15c-.87,0-1.69-.08-2.47-.25v-8.89h1.23c1.69,0,2.99.42,3.88,1.27.89.85,1.34,2.09,1.34,3.74,0,1.5-.31,2.57-.94,3.19s-1.65.94-3.05.94Z"/>
      <path class="cls-1" d="M486.5,222.77c1.31-.56,2.4-1.35,3.27-2.38.87-1.03,1.31-2.25,1.31-3.65,0-1.72-.68-3.02-2.03-3.92-1.36-.9-3.3-1.34-5.84-1.34h-9.33v.69l2.69,1.42v18.01l-2.69,1.38v.73h9.98v-.73l-3.23-1.38v-7.95c.7.02,1.22.02,1.54,0s.61-.04.85-.04l5.84,10.09h5.55v-.73l-1.96-1.16-5.95-9.04ZM483.09,222.15c-.87,0-1.69-.08-2.47-.25v-8.89h1.23c1.69,0,2.99.42,3.88,1.27.89.85,1.34,2.09,1.34,3.74,0,1.5-.31,2.57-.94,3.19s-1.65.94-3.05.94Z"/>
      <polygon class="cls-1" points="508.72 232.17 502.84 232.17 502.84 222.95 505.2 222.95 509.37 223.35 509.77 221.17 505.27 221.5 502.84 221.5 502.84 213.01 508.18 213.01 510.28 216.67 511.3 216.67 512.21 211.48 496.09 211.48 496.09 212.17 498.77 213.59 498.77 231.59 496.09 232.97 496.09 233.7 511.99 233.7 513 227.71 512.02 227.71 508.72 232.17"/>
      <path class="cls-1" d="M527.45,210.75l-2.47.94-8.21,19.89-2.29,1.38v.73h6.97v-.73l-2.58-1.34,2.4-6.03h7.81l2.29,5.99-3.05,1.38v.73h9.15v-.73l-1.96-1.38-8.06-20.84ZM521.9,224.08l3.34-8.49,3.27,8.49h-6.61Z"/>
      <polygon class="cls-1" points="551.7 232.17 545.68 232.17 545.68 213.59 548.95 212.21 548.95 211.48 538.93 211.48 538.93 212.17 541.61 213.59 541.61 231.59 538.93 232.97 538.93 233.7 555.19 233.7 556.28 227.27 555.3 227.27 551.7 232.17"/>
      <polygon class="cls-1" points="578.9 232.17 573.02 232.17 573.02 222.95 575.38 222.95 579.55 223.35 579.95 221.17 575.45 221.5 573.02 221.5 573.02 213.01 578.35 213.01 580.46 216.67 581.48 216.67 582.38 211.48 566.26 211.48 566.26 212.17 568.95 213.59 568.95 231.59 566.26 232.97 566.26 233.7 582.16 233.7 583.18 227.71 582.2 227.71 578.9 232.17"/>
      <path class="cls-1" d="M599.35,222.74c-.79-.61-1.86-1.17-3.21-1.71l-2-.83c-1.16-.48-2.08-1.05-2.74-1.71s-1-1.54-1-2.65c0-1.02.28-1.78.83-2.31.56-.52,1.33-.78,2.32-.78.65,0,1.31.04,1.98.13.67.09,1.29.24,1.87.45l1.89,3.52h1.02l.84-4.9c-.63-.27-1.45-.49-2.47-.67-1.02-.18-2.16-.27-3.41-.27-1.74,0-3.24.29-4.5.87-1.26.58-2.22,1.35-2.87,2.32s-.98,2.06-.98,3.27c0,.99.2,1.86.6,2.61.4.75.97,1.4,1.72,1.96.75.56,1.65,1.05,2.69,1.49l2,.83c1.52.63,2.58,1.31,3.18,2.03s.89,1.6.89,2.61c0,.78-.16,1.41-.47,1.91-.31.5-.74.87-1.27,1.11-.53.24-1.13.36-1.78.36-.75-.02-1.49-.07-2.21-.15-.73-.07-1.43-.22-2.11-.44l-1.82-3.59h-1.02l-.87,5.05c.77.29,1.68.51,2.72.67,1.04.16,2.17.24,3.38.24,1.72,0,3.25-.29,4.59-.87,1.34-.58,2.41-1.4,3.2-2.45.79-1.05,1.18-2.27,1.18-3.65,0-.94-.16-1.77-.49-2.49-.33-.71-.88-1.37-1.67-1.98Z"/>
      <polygon class="cls-1" points="624.02 211.48 604.71 211.48 603.69 217.18 604.67 217.18 608.05 213.01 611.75 213.01 611.75 231.52 608.92 232.97 608.92 233.7 618.65 233.7 618.65 232.97 615.82 231.52 615.82 213.01 620.03 213.01 622.03 217.18 623.01 217.18 624.02 211.48"/>
      <path class="cls-1" d="M635.39,210.75l-2.47.94-8.21,19.89-2.29,1.38v.73h6.97v-.73l-2.58-1.34,2.4-6.03h7.81l2.29,5.99-3.05,1.38v.73h9.15v-.73l-1.96-1.38-8.06-20.84ZM629.83,224.08l3.34-8.49,3.27,8.49h-6.61Z"/>
      <polygon class="cls-1" points="644.14 217.18 645.12 217.18 648.49 213.01 652.2 213.01 652.2 231.52 649.37 232.97 649.37 233.7 659.09 233.7 659.09 232.97 656.26 231.52 656.26 213.01 660.47 213.01 662.47 217.18 663.45 217.18 664.47 211.48 645.15 211.48 644.14 217.18"/>
      <polygon class="cls-1" points="682.37 227.71 679.06 232.17 673.18 232.17 673.18 222.95 675.54 222.95 679.72 223.35 680.12 221.17 675.61 221.5 673.18 221.5 673.18 213.01 678.52 213.01 680.62 216.67 681.64 216.67 682.55 211.48 666.43 211.48 666.43 212.17 669.12 213.59 669.12 231.59 666.43 232.97 666.43 233.7 682.33 233.7 683.35 227.71 682.37 227.71"/>
    </g>
  </g>
</svg>